# xmcd CD database file
#
# Track frame offsets:
#	150
#	19457
#	38290
#	54917
#	73335
#	90587
#	108010
#	122940
#	138502
#	159365
#	175695
#	190365
#
# Disc length: 2742 seconds
#
# Revision: 2
# Processed by: cddbd v1.5.2PL0 Copyright (c) Steve Scherf et al.
# Submitted via: CDex 1.79
#
DISCID=9a0ab40c
DTITLE=The Bellamy Brothers - The Reggae Cowboys
DYEAR=1999
DGENRE=Country
TTITLE0=Almost Jamaica
TTITLE1=I'll Be Your Baby Tonight
TTITLE2=Let Your Love Flow
TTITLE3=Get Into Reggae Cowboy (live)
TTITLE4=Some Broken Hearts
TTITLE5=I'll Fly Away
TTITLE6=I Make Her Laugh
TTITLE7=Bye Bye Love
TTITLE8=Mama Likes To Reggae (live)
TTITLE9=Having Too Much Fun
TTITLE10=I Love Her Mind
TTITLE11=Strong Weakness
EXTD=YEAR: 1999
EXTT0=
EXTT1=
EXTT2=
EXTT3=
EXTT4=
EXTT5=
EXTT6=
EXTT7=
EXTT8=
EXTT9=
EXTT10=
EXTT11=
PLAYORDER=
